<?xml version="1.0" encoding="utf-8"?>
<!-- Generator: Adobe Illustrator 25.4.1, SVG Export Plug-In . SVG Version: 6.00 Build 0)  -->
<svg version="1.1" id="Layer_1" xmlns="http://www.w3.org/2000/svg" xmlns:xlink="http://www.w3.org/1999/xlink" x="0px" y="0px"
	 viewBox="0 0 200 200" style="enable-background:new 0 0 200 200;" xml:space="preserve">
<style type="text/css">
	.st0{fill:none;}
</style>
<g>
	<path class="st0" d="M94.99,94.99c0,0,0,0.01,0,0.01c0,0,0.01,0,0.01,0c0,0,0-0.01,0-0.01C95,94.99,95,94.99,94.99,94.99z"/>
	<g>
		<path d="M95.01,95.01c0.16,0,0.33-0.01,0.49-0.01c-0.17,0-0.33-0.01-0.49-0.01C95.01,95,95.01,95,95.01,95.01z"/>
	</g>
	<g>
		<path d="M95.01,94.99c0.16,0,0.33,0.01,0.49,0.01c49.81,0,90.22-40.25,90.49-89.99c-0.16,0-0.33-0.01-0.49-0.01
			C135.69,5,95.28,45.25,95.01,94.99z"/>
	</g>
	<g>
		<path d="M94.99,94.99C94.72,45.41,54.59,5.28,5.01,5.01C5.28,54.59,45.41,94.72,94.99,94.99z"/>
	</g>
	<g>
		<path d="M95,95.5c0-0.17,0.01-0.33,0.01-0.49c0,0-0.01,0-0.01,0C94.99,95.17,95,95.33,95,95.5z"/>
	</g>
	<g>
		<path d="M95.5,95c-0.17,0-0.33,0.01-0.49,0.01c0,0.16-0.01,0.33-0.01,0.49c0,49.98,40.52,90.5,90.5,90.5
			c0.17,0,0.33-0.01,0.49-0.01c0-0.16,0.01-0.33,0.01-0.49C186,135.52,145.48,95,95.5,95z"/>
	</g>
	<g>
		<path d="M95,95.5c0-0.17-0.01-0.33-0.01-0.49C45.25,95.28,5,135.69,5,185.5c0,0.17,0.01,0.33,0.01,0.49
			C54.75,185.72,95,145.31,95,95.5z"/>
	</g>
</g>
</svg>
